<svg width="20" height="12" viewBox="0 0 20 12" fill="none" xmlns="http://www.w3.org/2000/svg">
<path fill-rule="evenodd" clip-rule="evenodd" d="M13.4611 0.247883C13.5399 0.169307 13.6334 0.106966 13.7364 0.0644301C13.8394 0.0218943 13.9498 0 14.0614 0C14.1729 0 14.2833 0.0218943 14.3863 0.0644301C14.4893 0.106966 14.5829 0.169307 14.6616 0.247883L19.7485 5.31038C19.8275 5.38876 19.8901 5.48187 19.9328 5.58438C19.9756 5.68688 19.9976 5.79678 19.9976 5.90776C19.9976 6.01874 19.9756 6.12863 19.9328 6.23114C19.8901 6.33365 19.8275 6.42676 19.7485 6.50513L14.6616 11.5676C14.5024 11.7261 14.2865 11.8151 14.0614 11.8151C13.8362 11.8151 13.6203 11.7261 13.4611 11.5676C13.3019 11.4092 13.2125 11.1943 13.2125 10.9703C13.2125 10.7462 13.3019 10.5313 13.4611 10.3729L17.9494 5.90776L13.4611 1.44263C13.3822 1.36426 13.3195 1.27115 13.2768 1.16864C13.234 1.06613 13.212 0.95624 13.212 0.845258C13.212 0.734276 13.234 0.624384 13.2768 0.521876C13.3195 0.419369 13.3822 0.32626 13.4611 0.247883Z" fill="black"/>
<mask id="path-2-inside-1" fill="white">
<path fill-rule="evenodd" clip-rule="evenodd" d="M0.149414 6C0.149414 5.73478 0.283509 5.48043 0.5222 5.29289C0.76089 5.10536 1.08462 5 1.42218 5H17.9682C18.3057 5 18.6295 5.10536 18.8682 5.29289C19.1069 5.48043 19.241 5.73478 19.241 6C19.241 6.26522 19.1069 6.51957 18.8682 6.70711C18.6295 6.89464 18.3057 7 17.9682 7H1.42218C1.08462 7 0.76089 6.89464 0.5222 6.70711C0.283509 6.51957 0.149414 6.26522 0.149414 6Z"/>
</mask>
<path fill-rule="evenodd" clip-rule="evenodd" d="M0.149414 6C0.149414 5.73478 0.283509 5.48043 0.5222 5.29289C0.76089 5.10536 1.08462 5 1.42218 5H17.9682C18.3057 5 18.6295 5.10536 18.8682 5.29289C19.1069 5.48043 19.241 5.73478 19.241 6C19.241 6.26522 19.1069 6.51957 18.8682 6.70711C18.6295 6.89464 18.3057 7 17.9682 7H1.42218C1.08462 7 0.76089 6.89464 0.5222 6.70711C0.283509 6.51957 0.149414 6.26522 0.149414 6Z" fill="black"/>
<path d="M0.149414 6H2.14941H0.149414ZM2.14941 6C2.14941 6.44232 1.92282 6.73591 1.75782 6.86555L-0.713418 3.72024C-1.3558 4.22495 -1.85059 5.02724 -1.85059 6H2.14941ZM1.75782 6.86555C1.67648 6.92946 1.60412 6.96165 1.55405 6.97794C1.50322 6.99448 1.45943 7 1.42218 7V3C0.689637 3 -0.0827418 3.22472 -0.713418 3.72024L1.75782 6.86555ZM1.42218 7H17.9682V3H1.42218V7ZM17.9682 7C17.9309 7 17.8871 6.99448 17.8363 6.97794C17.7863 6.96165 17.7139 6.92946 17.6326 6.86555L20.1038 3.72024C19.4731 3.22472 18.7007 3 17.9682 3V7ZM17.6326 6.86555C17.4675 6.73591 17.241 6.44232 17.241 6H21.241C21.241 5.02725 20.7462 4.22495 20.1038 3.72024L17.6326 6.86555ZM17.241 6C17.241 5.55768 17.4675 5.26409 17.6326 5.13445L20.1038 8.27976C20.7462 7.77505 21.241 6.97275 21.241 6H17.241ZM17.6326 5.13445C17.7139 5.07054 17.7863 5.03835 17.8363 5.02206C17.8872 5.00552 17.9309 5 17.9682 5V9C18.7007 9 19.4731 8.77528 20.1038 8.27976L17.6326 5.13445ZM17.9682 5H1.42218V9H17.9682V5ZM1.42218 5C1.45942 5 1.50322 5.00552 1.55405 5.02206C1.60411 5.03835 1.67648 5.07054 1.75782 5.13445L-0.713418 8.27976C-0.0827389 8.77528 0.689641 9 1.42218 9V5ZM1.75782 5.13445C1.92282 5.26409 2.14941 5.55768 2.14941 6H-1.85059C-1.85059 6.97276 -1.3558 7.77505 -0.713418 8.27976L1.75782 5.13445Z" fill="black" mask="url(#path-2-inside-1)"/>
</svg>
