<svg width="12" height="20" viewBox="0 0 12 20" fill="none" xmlns="http://www.w3.org/2000/svg">
<path fill-rule="evenodd" clip-rule="evenodd" d="M11.7521 13.3628C11.8307 13.4419 11.893 13.5358 11.9356 13.6392C11.9781 13.7426 12 13.8534 12 13.9654C12 14.0773 11.9781 14.1882 11.9356 14.2916C11.893 14.395 11.8307 14.4889 11.7521 14.5679L6.68962 19.6744C6.61124 19.7536 6.51813 19.8165 6.41562 19.8594C6.31312 19.9023 6.20322 19.9244 6.09224 19.9244C5.98126 19.9244 5.87137 19.9023 5.76886 19.8594C5.66635 19.8165 5.57324 19.7536 5.49487 19.6744L0.432367 14.5679C0.273933 14.4081 0.184927 14.1914 0.184927 13.9654C0.184927 13.7394 0.273933 13.5226 0.432367 13.3628C0.5908 13.203 0.805683 13.1132 1.02974 13.1132C1.2538 13.1132 1.46868 13.203 1.62712 13.3628L6.09224 17.8684L10.5574 13.3628C10.6357 13.2836 10.7289 13.2207 10.8314 13.1778C10.9339 13.1349 11.0438 13.1128 11.1547 13.1128C11.2657 13.1128 11.3756 13.1349 11.4781 13.1778C11.5806 13.2207 11.6737 13.2836 11.7521 13.3628Z" fill="black"/>
<mask id="path-2-inside-1" fill="white">
<path fill-rule="evenodd" clip-rule="evenodd" d="M6 0C6.26522 0 6.51957 0.13461 6.70711 0.374217C6.89464 0.613825 7 0.938801 7 1.27766L7 17.8872C7 18.2261 6.89464 18.551 6.70711 18.7906C6.51957 19.0303 6.26522 19.1649 6 19.1649C5.73478 19.1649 5.48043 19.0303 5.29289 18.7906C5.10536 18.551 5 18.2261 5 17.8872L5 1.27766C5 0.938801 5.10536 0.613825 5.29289 0.374217C5.48043 0.13461 5.73478 0 6 0Z"/>
</mask>
<path fill-rule="evenodd" clip-rule="evenodd" d="M6 0C6.26522 0 6.51957 0.13461 6.70711 0.374217C6.89464 0.613825 7 0.938801 7 1.27766L7 17.8872C7 18.2261 6.89464 18.551 6.70711 18.7906C6.51957 19.0303 6.26522 19.1649 6 19.1649C5.73478 19.1649 5.48043 19.0303 5.29289 18.7906C5.10536 18.551 5 18.2261 5 17.8872L5 1.27766C5 0.938801 5.10536 0.613825 5.29289 0.374217C5.48043 0.13461 5.73478 0 6 0Z" fill="black"/>
<path d="M6 0V2V0ZM6 2C5.55452 2 5.26055 1.77095 5.13215 1.60691L8.28206 -0.858471C7.77859 -1.50173 6.97592 -2 6 -2V2ZM5.13215 1.60691C5.0688 1.52596 5.03721 1.45438 5.02136 1.40551C5.00526 1.35585 5 1.31343 5 1.27766L9 1.27766C9 0.545658 8.77637 -0.226915 8.28206 -0.858471L5.13215 1.60691ZM5 1.27766L5 17.8872H9V1.27766L5 1.27766ZM5 17.8872C5 17.8514 5.00526 17.809 5.02136 17.7593C5.03721 17.7105 5.06879 17.6389 5.13215 17.558L8.28206 20.0233C8.77637 19.3918 9 18.6192 9 17.8872H5ZM5.13215 17.558C5.26055 17.3939 5.55452 17.1649 6 17.1649L6 21.1649C6.97591 21.1649 7.77859 20.6666 8.28206 20.0233L5.13215 17.558ZM6 17.1649C6.44548 17.1649 6.73945 17.3939 6.86785 17.558L3.71794 20.0233C4.22141 20.6666 5.02409 21.1649 6 21.1649L6 17.1649ZM6.86785 17.558C6.93121 17.6389 6.9628 17.7105 6.97864 17.7594C6.99474 17.809 7 17.8514 7 17.8872H3C3 18.6192 3.22363 19.3918 3.71794 20.0233L6.86785 17.558ZM7 17.8872L7 1.27766L3 1.27766L3 17.8872H7ZM7 1.27766C7 1.31343 6.99474 1.35585 6.97864 1.40551C6.96279 1.45438 6.9312 1.52596 6.86785 1.60691L3.71794 -0.858471C3.22363 -0.226912 3 0.545663 3 1.27766L7 1.27766ZM6.86785 1.60691C6.73945 1.77095 6.44548 2 6 2V-2C5.02408 -2 4.22141 -1.50173 3.71794 -0.858471L6.86785 1.60691Z" fill="black" mask="url(#path-2-inside-1)"/>
</svg>
