<svg width="28" height="28" fill="none" xmlns="http://www.w3.org/2000/svg"><path d="M17.707 8.735l.046.094.104.015 6.942 1.01s0 0 0 0a.672.672 0 01.57.763v.002a.674.674 0 01-.196.386s0 0 0 0l-5.023 4.897-.075.074.018.103 1.186 6.915h0a.674.674 0 01-.55.779h0a.669.669 0 01-.427-.067H20.3l-6.21-3.266-.093-.049-.093.05-6.21 3.264h0a.674.674 0 01-.979-.71h0l1.187-6.916.018-.103-.075-.074-5.023-4.897h0a.676.676 0 01.372-1.152h0l6.943-1.009.104-.015.047-.094 3.103-6.291s0 0 0 0a.679.679 0 01.906-.307h0a.67.67 0 01.305.306h0l3.104 6.292z" fill="#000" stroke="#000" stroke-width=".4"/></svg>