<svg width="32" height="20" fill="none" xmlns="http://www.w3.org/2000/svg"><path fill-rule="evenodd" clip-rule="evenodd" d="M11.41 19.189a1.374 1.374 0 01-1.947 0l-8.25-8.25a1.374 1.374 0 010-1.947l8.25-8.25a1.377 1.377 0 011.948 1.947L4.13 9.965l7.28 7.277a1.378 1.378 0 01.299 1.5 1.38 1.38 0 01-.3.447z" fill="#FFD600"/><path fill-rule="evenodd" clip-rule="evenodd" d="M32 9.815c0 .432-.218.847-.605 1.152-.387.306-.912.477-1.46.477H3.102c-.547 0-1.072-.171-1.46-.477-.386-.306-.604-.72-.604-1.152 0-.432.218-.847.605-1.152.387-.306.912-.478 1.46-.478h26.834c.547 0 1.072.172 1.46.478.386.305.604.72.604 1.152z" fill="#FFD600"/><path fill-rule="evenodd" clip-rule="evenodd" d="M31.395 10.967c.387-.306.605-.72.605-1.152 0-.432-.218-.847-.605-1.152-.387-.306-.912-.478-1.46-.478H3.102c-.547 0-1.072.172-1.46.478-.386.305-.604.72-.604 1.152 0 .432.218.847.605 1.152.387.306.912.477 1.46.477h26.834c.547 0 1.072-.171 1.46-.477z" fill="#FFD600"/></svg>