<svg width="21" height="12" fill="none" xmlns="http://www.w3.org/2000/svg"><path fill-rule="evenodd" clip-rule="evenodd" d="M13.907.248a.864.864 0 01.61-.248.878.878 0 01.61.248L20.3 5.31a.845.845 0 01.253.598.827.827 0 01-.253.597l-5.173 5.063a.872.872 0 01-1.22 0 .836.836 0 010-1.195l4.563-4.465-4.563-4.465a.843.843 0 01-.254-.598.83.83 0 01.254-.597z" fill="#000"/><path fill-rule="evenodd" clip-rule="evenodd" d="M.371 6c0-.265.136-.52.38-.707.242-.188.571-.293.914-.293H18.49c.343 0 .672.105.915.293.243.187.38.442.38.707 0 .265-.137.52-.38.707A1.509 1.509 0 0118.49 7H1.665c-.343 0-.672-.105-.915-.293C.507 6.52.371 6.265.371 6z" fill="#000"/><path fill-rule="evenodd" clip-rule="evenodd" d="M.75 5.293C.507 5.48.371 5.735.371 6c0 .265.136.52.38.707.242.188.571.293.914.293H18.49c.343 0 .672-.105.915-.293.243-.187.38-.442.38-.707 0-.265-.137-.52-.38-.707A1.509 1.509 0 0018.49 5H1.665c-.343 0-.672.105-.915.293z" fill="#000"/></svg>