<svg width="10" height="16" fill="none" xmlns="http://www.w3.org/2000/svg"><path d="M.147 8.587c-.408.804.056 1.188 1.114 1.844.9.556 2.144.759 2.942.84L1.056 14.3c-.916.878.559 2.286 1.474 1.427l2.478-2.39c.949.913 1.858 1.787 2.478 2.393.916.863 2.39-.534 1.484-1.427l-3.157-3.027c.808-.082 2.033-.297 2.922-.841 1.058-.66 1.522-1.043 1.12-1.847-.244-.456-.9-.837-1.773-.178 0 0-1.18.904-3.081.904-1.903 0-3.082-.904-3.082-.904-.872-.662-1.531-.278-1.772.178z" fill="#fff"/><path d="M4.999 8.095c2.318 0 4.212-1.812 4.212-4.043C9.21 1.812 7.317 0 4.999 0 2.679 0 .786 1.812.786 4.052.786 6.282 2.68 8.095 5 8.095zm0-6.042c1.14 0 2.068.894 2.068 1.999 0 1.096-.929 1.99-2.068 1.99-1.14 0-2.069-.894-2.069-1.99 0-1.106.929-2 2.069-2z" fill="#fff"/></svg>