<svg width="16" height="10" fill="none" xmlns="http://www.w3.org/2000/svg"><path d="M13.277 5.685c-.259-.326-.185-.472 0-.764.003-.003 2.138-2.954 2.358-3.954l.002-.001c.109-.365 0-.633-.529-.633h-1.75c-.445 0-.65.23-.76.488 0 0-.89 2.132-2.15 3.514-.407.399-.595.527-.817.527-.11 0-.28-.128-.28-.493V.966c0-.437-.124-.633-.493-.633h-2.75c-.28 0-.446.204-.446.394 0 .415.63.51.695 1.677v2.531c0 .555-.1.657-.324.657-.594 0-2.038-2.14-2.893-4.59-.173-.476-.341-.668-.79-.668H.6c-.5 0-.6.23-.6.487 0 .455.595 2.716 2.765 5.702C4.212 8.562 6.25 9.667 8.103 9.667c1.114 0 1.25-.246 1.25-.668 0-1.948-.101-2.132.457-2.132.259 0 .704.128 1.744 1.112 1.189 1.166 1.384 1.688 2.05 1.688h1.749c.498 0 .751-.246.606-.73-.333-1.018-2.581-3.112-2.682-3.252z" fill="#fff"/></svg>