<svg width="28" height="28" viewBox="0 0 28 28" fill="none" xmlns="http://www.w3.org/2000/svg">
<path d="M17.7068 8.73474L17.7533 8.82906L17.8574 8.84418L24.7994 9.85308C24.7995 9.85309 24.7996 9.85311 24.7997 9.85313C25.1707 9.90845 25.4259 10.2509 25.3694 10.6173L25.369 10.6195C25.348 10.7665 25.2787 10.9015 25.1729 11.0053C25.1728 11.0053 25.1728 11.0053 25.1727 11.0054L20.1501 15.9023L20.0748 15.9757L20.0926 16.0793L21.2793 22.9945L21.2793 22.9947C21.3425 23.3611 21.0962 23.7093 20.7287 23.7726L20.7285 23.7727C20.5827 23.798 20.431 23.7745 20.3016 23.7056L20.3007 23.7052L14.091 20.4403L13.9979 20.3914L13.9048 20.4403L7.69505 23.7052L7.69474 23.7053C7.58342 23.7641 7.45786 23.7905 7.3323 23.7816C7.20674 23.7726 7.0862 23.7287 6.98435 23.6547C6.8825 23.5807 6.80342 23.4797 6.75606 23.363C6.70871 23.2464 6.69498 23.1188 6.71644 22.9948L6.71649 22.9945L7.90321 16.0793L7.92099 15.9757L7.8457 15.9023L2.82266 11.005L2.82264 11.005C2.69427 10.8799 2.62083 10.7089 2.61846 10.5296C2.61608 10.3505 2.68486 10.1778 2.80968 10.0493C2.91346 9.94351 3.04836 9.87423 3.19531 9.85324L3.19579 9.85317L10.1384 8.84418L10.2424 8.82906L10.289 8.73474L13.392 2.44391C13.3921 2.44375 13.3922 2.4436 13.3922 2.44344C13.5595 2.10958 13.9651 1.97313 14.2976 2.13732L14.2979 2.13743C14.4305 2.20271 14.5379 2.31011 14.6032 2.44277L14.6033 2.44294L17.7068 8.73474Z" fill="black" stroke="black" stroke-width="0.4"/>
</svg>
