<svg width="24" height="24" viewBox="0 0 24 24" fill="none" xmlns="http://www.w3.org/2000/svg">
<path d="M4.22387 2.0321L11.9999 9.8081L19.7439 2.0641C19.8796 1.91965 20.0431 1.80409 20.2245 1.72436C20.406 1.64463 20.6017 1.60236 20.7999 1.6001C21.2242 1.6001 21.6312 1.76867 21.9312 2.06873C22.2313 2.36878 22.3999 2.77575 22.3999 3.2001C22.4036 3.39626 22.3672 3.59112 22.2929 3.77271C22.2186 3.9543 22.108 4.11879 21.9679 4.2561L14.1439 12.0001L21.9679 19.8241C22.2316 20.0821 22.3862 20.4314 22.3999 20.8001C22.3999 21.2244 22.2313 21.6314 21.9312 21.9315C21.6312 22.2315 21.2242 22.4001 20.7999 22.4001C20.596 22.4086 20.3925 22.3745 20.2025 22.3002C20.0124 22.2258 19.8399 22.1127 19.6959 21.9681L11.9999 14.1921L4.23987 21.9521C4.10468 22.0917 3.94317 22.2032 3.76467 22.2801C3.58617 22.357 3.39421 22.3978 3.19987 22.4001C2.77552 22.4001 2.36856 22.2315 2.0685 21.9315C1.76844 21.6314 1.59987 21.2244 1.59987 20.8001C1.59614 20.6039 1.63253 20.4091 1.70682 20.2275C1.78111 20.0459 1.89172 19.8814 2.03187 19.7441L9.85587 12.0001L2.03187 4.1761C1.76817 3.91811 1.61353 3.56876 1.59987 3.2001C1.59987 2.77575 1.76844 2.36878 2.0685 2.06873C2.36856 1.76867 2.77552 1.6001 3.19987 1.6001C3.58387 1.6049 3.95187 1.7601 4.22387 2.0321Z" fill="#C4C4C4"/>
</svg>
