<svg width="18" height="18" viewBox="0 0 18 18" fill="none" xmlns="http://www.w3.org/2000/svg">
<path d="M16.9999 8.39001C17.1858 8.25158 17.3236 8.05845 17.3941 7.83772C17.4647 7.61698 17.4643 7.37971 17.3932 7.15917C17.3221 6.93863 17.1837 6.74587 16.9975 6.60794C16.8113 6.47 16.5866 6.3938 16.3549 6.39001L11.8549 6.22001C11.8328 6.21848 11.8116 6.21059 11.7938 6.19729C11.7761 6.18398 11.7626 6.16583 11.7549 6.14501L10.1999 1.94501C10.1218 1.73133 9.97989 1.54682 9.79342 1.41646C9.60696 1.2861 9.38494 1.21619 9.15742 1.21619C8.92991 1.21619 8.70788 1.2861 8.52142 1.41646C8.33495 1.54682 8.19305 1.73133 8.11492 1.94501L6.56492 6.16001C6.55726 6.18083 6.54374 6.19898 6.526 6.21229C6.50826 6.22559 6.48705 6.23349 6.46492 6.23501L1.96492 6.40501C1.73322 6.4088 1.50852 6.485 1.32232 6.62294C1.13611 6.76087 0.99775 6.95363 0.926625 7.17417C0.8555 7.39471 0.855181 7.63198 0.925713 7.85272C0.996244 8.07345 1.13409 8.26658 1.31992 8.40501L4.84992 11.18C4.86759 11.1939 4.88079 11.2127 4.8879 11.234C4.89501 11.2553 4.89571 11.2783 4.88992 11.3L3.67492 15.605C3.61196 15.8242 3.61806 16.0575 3.69239 16.2732C3.76672 16.4888 3.90567 16.6763 4.09034 16.8102C4.27502 16.944 4.49644 17.0177 4.7245 17.0213C4.95255 17.0248 5.17617 16.9581 5.36492 16.83L9.09492 14.33C9.11329 14.3173 9.13509 14.3105 9.15742 14.3105C9.17975 14.3105 9.20155 14.3173 9.21992 14.33L12.9499 16.83C13.1361 16.9624 13.3589 17.0336 13.5874 17.0336C13.8159 17.0336 14.0387 16.9624 14.2249 16.83C14.4096 16.6974 14.5487 16.5108 14.623 16.2959C14.6974 16.081 14.7033 15.8484 14.6399 15.63L13.4149 11.31C13.4084 11.2883 13.4088 11.2652 13.4159 11.2437C13.4231 11.2222 13.4367 11.2035 13.4549 11.19L16.9999 8.39001Z" fill="#FFD600"/>
</svg>
