<svg width="21" height="12" viewBox="0 0 21 12" fill="none" xmlns="http://www.w3.org/2000/svg">
<path fill-rule="evenodd" clip-rule="evenodd" d="M13.9066 0.247883C13.9867 0.169307 14.0818 0.106966 14.1865 0.0644301C14.2912 0.0218943 14.4035 0 14.5169 0C14.6303 0 14.7426 0.0218943 14.8473 0.0644301C14.952 0.106966 15.0472 0.169307 15.1272 0.247883L20.2996 5.31038C20.3798 5.38876 20.4435 5.48187 20.487 5.58438C20.5305 5.68688 20.5528 5.79678 20.5528 5.90776C20.5528 6.01874 20.5305 6.12863 20.487 6.23114C20.4435 6.33365 20.3798 6.42676 20.2996 6.50513L15.1272 11.5676C14.9654 11.7261 14.7458 11.8151 14.5169 11.8151C14.288 11.8151 14.0685 11.7261 13.9066 11.5676C13.7447 11.4092 13.6538 11.1943 13.6538 10.9703C13.6538 10.7462 13.7447 10.5313 13.9066 10.3729L18.4703 5.90776L13.9066 1.44263C13.8263 1.36426 13.7626 1.27115 13.7191 1.16864C13.6757 1.06613 13.6533 0.95624 13.6533 0.845258C13.6533 0.734276 13.6757 0.624384 13.7191 0.521876C13.7626 0.419369 13.8263 0.32626 13.9066 0.247883Z" fill="black"/>
<path fill-rule="evenodd" clip-rule="evenodd" d="M0.371094 6C0.371094 5.73478 0.507441 5.48043 0.75014 5.29289C0.992839 5.10536 1.32201 5 1.66524 5H18.4891C18.8323 5 19.1615 5.10536 19.4042 5.29289C19.6469 5.48043 19.7832 5.73478 19.7832 6C19.7832 6.26522 19.6469 6.51957 19.4042 6.70711C19.1615 6.89464 18.8323 7 18.4891 7H1.66524C1.32201 7 0.992839 6.89464 0.75014 6.70711C0.507441 6.51957 0.371094 6.26522 0.371094 6Z" fill="black"/>
<path fill-rule="evenodd" clip-rule="evenodd" d="M0.75014 5.29289C0.507441 5.48043 0.371094 5.73478 0.371094 6C0.371094 6.26522 0.507441 6.51957 0.75014 6.70711C0.992839 6.89464 1.32201 7 1.66524 7H18.4891C18.8323 7 19.1615 6.89464 19.4042 6.70711C19.6469 6.51957 19.7832 6.26522 19.7832 6C19.7832 5.73478 19.6469 5.48043 19.4042 5.29289C19.1615 5.10536 18.8323 5 18.4891 5H1.66524C1.32201 5 0.992839 5.10536 0.75014 5.29289Z" fill="black"/>
</svg>
