<svg width="32" height="20" viewBox="0 0 32 20" fill="none" xmlns="http://www.w3.org/2000/svg">
<path fill-rule="evenodd" clip-rule="evenodd" d="M11.4105 19.1886C11.2828 19.3167 11.131 19.4183 10.964 19.4876C10.7969 19.5569 10.6179 19.5926 10.437 19.5926C10.2561 19.5926 10.0771 19.5569 9.91001 19.4876C9.74296 19.4183 9.59122 19.3167 9.4635 19.1886L1.2135 10.9386C1.08545 10.8109 0.983859 10.6592 0.914541 10.4921C0.845224 10.3251 0.809544 10.146 0.809544 9.96513C0.809544 9.78427 0.845224 9.60519 0.914541 9.43814C0.983859 9.27109 1.08545 9.11936 1.2135 8.99163L9.4635 0.741634C9.72168 0.483446 10.0719 0.338398 10.437 0.338398C10.8021 0.338398 11.1523 0.483446 11.4105 0.741634C11.6687 0.999823 11.8137 1.35 11.8137 1.71513C11.8137 2.08027 11.6687 2.43045 11.4105 2.68863L4.13125 9.96513L11.4105 17.2416C11.5385 17.3694 11.6401 17.5211 11.7095 17.6881C11.7788 17.8552 11.8145 18.0343 11.8145 18.2151C11.8145 18.396 11.7788 18.5751 11.7095 18.7421C11.6401 18.9092 11.5385 19.0609 11.4105 19.1886Z" fill="#FFD600"/>
<path fill-rule="evenodd" clip-rule="evenodd" d="M32 9.81483C32 10.247 31.7825 10.6615 31.3954 10.9672C31.0083 11.2728 30.4833 11.4445 29.9358 11.4445L3.10123 11.4445C2.55378 11.4445 2.02874 11.2728 1.64162 10.9672C1.25451 10.6615 1.03704 10.247 1.03704 9.81483C1.03704 9.38262 1.25451 8.96812 1.64162 8.66251C2.02874 8.35689 2.55378 8.1852 3.10123 8.1852L29.9358 8.1852C30.4833 8.1852 31.0083 8.35689 31.3954 8.66251C31.7825 8.96812 32 9.38262 32 9.81483Z" fill="#FFD600"/>
<path fill-rule="evenodd" clip-rule="evenodd" d="M31.3954 10.9672C31.7825 10.6615 32 10.247 32 9.81483C32 9.38262 31.7825 8.96812 31.3954 8.66251C31.0083 8.35689 30.4833 8.1852 29.9358 8.1852L3.10123 8.1852C2.55378 8.1852 2.02874 8.35689 1.64162 8.66251C1.25451 8.96812 1.03704 9.38262 1.03704 9.81483C1.03704 10.247 1.25451 10.6615 1.64162 10.9672C2.02874 11.2728 2.55378 11.4445 3.10123 11.4445L29.9358 11.4445C30.4833 11.4445 31.0083 11.2728 31.3954 10.9672Z" fill="#FFD600"/>
</svg>
