<svg width="11" height="21" viewBox="0 0 11 21" fill="none" xmlns="http://www.w3.org/2000/svg">
<path d="M1.5859 20.7083C1.24516 20.709 0.914938 20.5903 0.652566 20.3729C0.504898 20.2505 0.382833 20.1001 0.293361 19.9305C0.203889 19.7608 0.14877 19.5751 0.131159 19.3841C0.113549 19.1931 0.133793 19.0005 0.190733 18.8173C0.247673 18.6342 0.340188 18.464 0.462983 18.3167L6.99632 10.5L0.696317 2.66875C0.575179 2.51958 0.484716 2.34793 0.430128 2.16369C0.375541 1.97945 0.357904 1.78623 0.378232 1.59515C0.39856 1.40406 0.456451 1.21888 0.548579 1.05024C0.640708 0.881607 0.765257 0.73284 0.915067 0.612495C1.06595 0.479733 1.24265 0.379593 1.43408 0.318359C1.6255 0.257125 1.82752 0.236119 2.02745 0.25666C2.22737 0.2772 2.4209 0.338844 2.59587 0.437721C2.77085 0.536599 2.92349 0.670576 3.04423 0.831245L10.088 9.58124C10.3025 9.84219 10.4197 10.1695 10.4197 10.5073C10.4197 10.8451 10.3025 11.1724 10.088 11.4333L2.79632 20.1833C2.65002 20.3598 2.46418 20.4993 2.25387 20.5905C2.04357 20.6818 1.81472 20.7221 1.5859 20.7083Z" fill="#FFD600"/>
</svg>
