<svg width="11" height="21" viewBox="0 0 11 21" fill="none" xmlns="http://www.w3.org/2000/svg">
<path d="M9.16925 20.7084C8.95139 20.7092 8.73612 20.6611 8.53928 20.5677C8.34243 20.4743 8.16901 20.338 8.03175 20.1688L0.988003 11.4188C0.773509 11.1579 0.65625 10.8306 0.65625 10.4928C0.65625 10.155 0.773509 9.82769 0.988003 9.56674L8.27967 0.816743C8.5272 0.518927 8.88291 0.331642 9.26853 0.296088C9.65415 0.260534 10.0381 0.379624 10.3359 0.62716C10.6337 0.874695 10.821 1.2304 10.8566 1.61602C10.8921 2.00164 10.773 2.38559 10.5255 2.68341L4.00675 10.5001L10.3068 18.3167C10.4851 18.5308 10.5984 18.7915 10.6332 19.0679C10.668 19.3443 10.6229 19.6249 10.5033 19.8765C10.3836 20.1281 10.1944 20.3402 9.95795 20.4876C9.72154 20.635 9.44784 20.7117 9.16925 20.7084Z" fill="#FFD600"/>
</svg>
