<svg width="10" height="16" viewBox="0 0 10 16" fill="none" xmlns="http://www.w3.org/2000/svg">
<path d="M0.147318 8.58731C-0.261349 9.39064 0.202651 9.77464 1.26132 10.4306C2.16132 10.9866 3.40465 11.19 4.20332 11.2713C3.87598 11.586 5.37598 10.1433 1.05598 14.2986C0.139984 15.1766 1.61465 16.5853 2.52998 15.726L5.00798 13.336C5.95665 14.2486 6.86598 15.1233 7.48599 15.7293C8.40199 16.592 9.87599 15.1953 8.96999 14.302C8.90199 14.2373 5.61198 11.0813 5.81265 11.2746C6.62132 11.1933 7.84599 10.978 8.73532 10.434L8.73465 10.4333C9.79332 9.77398 10.2573 9.39064 9.85465 8.58731C9.61132 8.13131 8.95532 7.74998 8.08198 8.40931C8.08198 8.40931 6.90265 9.31264 5.00065 9.31264C3.09798 9.31264 1.91932 8.40931 1.91932 8.40931C1.04665 7.74664 0.387984 8.13131 0.147318 8.58731Z" fill="white"/>
<path d="M4.9988 8.09467C7.31747 8.09467 9.2108 6.28267 9.2108 4.052C9.2108 1.812 7.31747 0 4.9988 0C2.67947 0 0.786133 1.812 0.786133 4.052C0.786133 6.28267 2.67947 8.09467 4.9988 8.09467ZM4.9988 2.05267C6.13813 2.05267 7.06747 2.94667 7.06747 4.052C7.06747 5.148 6.13813 6.042 4.9988 6.042C3.85947 6.042 2.93013 5.148 2.93013 4.052C2.92947 2.946 3.8588 2.05267 4.9988 2.05267Z" fill="white"/>
</svg>
