<svg width="16" height="10" viewBox="0 0 16 10" fill="none" xmlns="http://www.w3.org/2000/svg">
<path d="M13.2767 5.68538C13.018 5.35871 13.092 5.21338 13.2767 4.92138C13.28 4.91804 15.4153 1.96737 15.6353 0.966707L15.6367 0.966041C15.746 0.601374 15.6367 0.333374 15.108 0.333374H13.3587C12.9133 0.333374 12.708 0.563374 12.598 0.820707C12.598 0.820707 11.7073 2.95271 10.4473 4.33471C10.0407 4.73404 9.85267 4.86204 9.63067 4.86204C9.52133 4.86204 9.35133 4.73404 9.35133 4.36938V0.966041C9.35133 0.528707 9.22667 0.333374 8.858 0.333374H6.10733C5.828 0.333374 5.662 0.537374 5.662 0.727374C5.662 1.14204 6.292 1.23737 6.35733 2.40404V4.93538C6.35733 5.49004 6.25667 5.59204 6.03333 5.59204C5.43867 5.59204 3.99533 3.45137 3.14 1.00137C2.96733 0.526041 2.79867 0.334041 2.35 0.334041H0.6C0.100667 0.334041 0 0.564041 0 0.821374C0 1.27604 0.594666 3.53671 2.76533 6.52338C4.212 8.56204 6.24933 9.66671 8.10267 9.66671C9.21667 9.66671 9.35267 9.42138 9.35267 8.99938C9.35267 7.05138 9.252 6.86738 9.81 6.86738C10.0687 6.86738 10.514 6.99538 11.554 7.97871C12.7427 9.14471 12.938 9.66671 13.6033 9.66671H15.3527C15.8513 9.66671 16.104 9.42138 15.9587 8.93738C15.626 7.91938 13.378 5.82538 13.2767 5.68538Z" fill="white"/>
</svg>
