<svg width="29" height="29" fill="none" xmlns="http://www.w3.org/2000/svg"><path d="M27.078.828H1.922c-.605 0-1.094.489-1.094 1.094v25.156c0 .605.489 1.094 1.094 1.094h25.156c.605 0 1.094-.489 1.094-1.094V1.922c0-.605-.489-1.094-1.094-1.094zM21.063 15.32c0 .15-.123.274-.274.274h-5.195v5.195c0 .15-.123.273-.274.273h-1.64a.274.274 0 01-.274-.273v-5.195H8.211a.274.274 0 01-.274-.274v-1.64c0-.15.124-.274.274-.274h5.195V8.211c0-.15.123-.274.274-.274h1.64c.15 0 .274.124.274.274v5.195h5.195c.15 0 .273.123.273.274v1.64z" fill="#FFD600"/></svg>