<svg width="20" height="12" fill="none" xmlns="http://www.w3.org/2000/svg"><path fill-rule="evenodd" clip-rule="evenodd" d="M13.461.248a.849.849 0 011.2 0L19.75 5.31a.842.842 0 010 1.195l-5.087 5.063a.85.85 0 01-1.45-.598.84.84 0 01.25-.597l4.487-4.465-4.488-4.465a.843.843 0 010-1.195z" fill="#000"/><mask id="a" fill="#fff"><path fill-rule="evenodd" clip-rule="evenodd" d="M.15 6c0-.265.134-.52.372-.707.239-.188.563-.293.9-.293h16.546c.338 0 .662.105.9.293.239.187.373.442.373.707 0 .265-.134.52-.373.707a1.467 1.467 0 01-.9.293H1.422c-.337 0-.661-.105-.9-.293C.284 6.52.15 6.265.15 6z"/></mask><path fill-rule="evenodd" clip-rule="evenodd" d="M.15 6c0-.265.134-.52.372-.707.239-.188.563-.293.9-.293h16.546c.338 0 .662.105.9.293.239.187.373.442.373.707 0 .265-.134.52-.373.707a1.467 1.467 0 01-.9.293H1.422c-.337 0-.661-.105-.9-.293C.284 6.52.15 6.265.15 6z" fill="#000"/><path d="M.15 6h2-2zm2 0c0 .442-.227.736-.392.866L-.713 3.72c-.643.505-1.138 1.307-1.138 2.28h4zm-.392.866a.666.666 0 01-.204.112.423.423 0 01-.132.022V3c-.732 0-1.505.225-2.135.72l2.47 3.146zM1.422 7h16.546V3H1.422v4zm16.546 0a.422.422 0 01-.132-.022.666.666 0 01-.203-.112l2.47-3.146A3.465 3.465 0 0017.969 3v4zm-.335-.134A1.1 1.1 0 0117.24 6h4c0-.973-.495-1.775-1.137-2.28l-2.471 3.146zM17.24 6a1.1 1.1 0 01.392-.866l2.47 3.146c.643-.505 1.138-1.307 1.138-2.28h-4zm.392-.866a.666.666 0 01.203-.112.423.423 0 01.132-.022v4c.733 0 1.505-.225 2.136-.72l-2.471-3.146zM17.968 5H1.422v4h16.546V5zM1.422 5c.037 0 .081.006.132.022.05.016.122.049.204.112L-.713 8.28C-.083 8.775.69 9 1.422 9V5zm.336.134c.165.13.391.424.391.866h-4c0 .973.495 1.775 1.138 2.28l2.47-3.146z" fill="#000" mask="url(#a)"/></svg>