<svg width="12" height="20" fill="none" xmlns="http://www.w3.org/2000/svg"><path fill-rule="evenodd" clip-rule="evenodd" d="M11.752 13.363a.853.853 0 010 1.205L6.69 19.674a.844.844 0 01-.921.185.844.844 0 01-.274-.185L.432 14.568a.856.856 0 010-1.205.841.841 0 011.195 0l4.465 4.505 4.465-4.505a.843.843 0 01.921-.185.844.844 0 01.274.185z" fill="#000"/><mask id="a" fill="#fff"><path fill-rule="evenodd" clip-rule="evenodd" d="M6 0c.265 0 .52.135.707.374.188.24.293.565.293.904v16.61c0 .338-.105.663-.293.903-.187.24-.442.374-.707.374-.265 0-.52-.135-.707-.374A1.476 1.476 0 015 17.887V1.277c0-.338.105-.663.293-.903C5.48.134 5.735 0 6 0z"/></mask><path fill-rule="evenodd" clip-rule="evenodd" d="M6 0c.265 0 .52.135.707.374.188.24.293.565.293.904v16.61c0 .338-.105.663-.293.903-.187.24-.442.374-.707.374-.265 0-.52-.135-.707-.374A1.476 1.476 0 015 17.887V1.277c0-.338.105-.663.293-.903C5.48.134 5.735 0 6 0z" fill="#000"/><path d="M6 0v2-2zm0 2c-.445 0-.74-.229-.868-.393l3.15-2.465C7.78-1.502 6.976-2 6-2v4zm-.868-.393a.66.66 0 01-.11-.201A.411.411 0 015 1.278h4c0-.732-.224-1.505-.718-2.136l-3.15 2.465zM5 1.277v16.61h4V1.277H5zm0 16.61c0-.036.005-.078.021-.128a.66.66 0 01.111-.201l3.15 2.465A3.474 3.474 0 009 17.887H5zm.132-.329c.129-.164.423-.393.868-.393v4c.976 0 1.779-.498 2.282-1.142l-3.15-2.465zM6 17.165c.445 0 .74.229.868.393l-3.15 2.465c.503.644 1.306 1.142 2.282 1.142v-4zm.868.393a.63.63 0 01.11.201.41.41 0 01.022.128H3c0 .732.224 1.505.718 2.136l3.15-2.465zm.132.33V1.277H3v16.61h4zm0-16.61a.411.411 0 01-.021.128.66.66 0 01-.111.2L3.718-.857A3.474 3.474 0 003 1.278h4zm-.132.329A1.103 1.103 0 016 2v-4c-.976 0-1.779.498-2.282 1.142l3.15 2.465z" fill="#000" mask="url(#a)"/></svg>